<svg xmlns="http://www.w3.org/2000/svg" width="46" height="46" viewBox="0 0 46 46"><g><g><path fill="#0f7bff" d="M36.298 12.465v-9.77a.9.9 0 0 0-.898-.899H2.695a.9.9 0 0 0-.898.9v40.608a.9.9 0 0 0 .898.899H35.4a.9.9 0 0 0 .898-.899v-6.619a.899.899 0 0 1 1.797 0v6.62A2.699 2.699 0 0 1 35.4 46H2.695A2.699 2.699 0 0 1 0 43.304V2.695A2.698 2.698 0 0 1 2.695 0H35.4a2.698 2.698 0 0 1 2.695 2.696v9.77a.898.898 0 0 1-1.797 0zm-8.984.652c0 2.364-.999 4.5-2.596 6.007a8.236 8.236 0 0 1-5.67 2.258 8.234 8.234 0 0 1-5.671-2.258 8.242 8.242 0 0 1-2.595-6.007c0-4.558 3.708-8.266 8.266-8.266s8.266 3.708 8.266 8.265zm-4.359 5.15a4.464 4.464 0 0 0-3.907-2.276 4.464 4.464 0 0 0-3.908 2.276 6.431 6.431 0 0 0 3.908 1.318 6.431 6.431 0 0 0 3.907-1.318zm-3.907-4.072a1.44 1.44 0 0 0 1.437-1.438v-.583a1.44 1.44 0 0 0-1.437-1.439 1.44 1.44 0 0 0-1.438 1.439v.583a1.44 1.44 0 0 0 1.438 1.438zm6.469-1.079a6.476 6.476 0 0 0-6.47-6.468 6.476 6.476 0 0 0-6.468 6.469c0 1.434.47 2.76 1.263 3.834a6.232 6.232 0 0 1 2.647-2.219 3.217 3.217 0 0 1-.676-1.975v-.583a3.238 3.238 0 0 1 3.235-3.235 3.238 3.238 0 0 1 3.234 3.235v.583c0 .744-.253 1.429-.676 1.975a6.231 6.231 0 0 1 2.647 2.22 6.431 6.431 0 0 0 1.264-3.836zm-.72 27.133a.899.899 0 0 1-.898.899h-4.851a.899.899 0 0 1 0-1.797h4.851c.496 0 .899.402.899.898zm0-5.031a.899.899 0 0 1-.898.899H11.141a.899.899 0 0 1 0-1.797h12.758c.496 0 .899.402.899.898zm0-5.031a.898.898 0 0 1-.898.898H11.141a.898.898 0 1 1 0-1.796h12.758c.496 0 .899.401.899.898zM8.203 25.155a.906.906 0 0 1-.263.636.907.907 0 0 1-.636.263.906.906 0 0 1-.635-.263.905.905 0 0 1-.264-.636c0-.236.096-.468.264-.634a.905.905 0 0 1 .635-.264.903.903 0 0 1 .9.898zm0 5.032a.906.906 0 0 1-.263.635.908.908 0 0 1-.636.263.908.908 0 0 1-.635-.263.906.906 0 0 1-.264-.635c0-.237.096-.468.264-.635a.907.907 0 0 1 .635-.263c.237 0 .468.096.636.263a.903.903 0 0 1 .263.635zm0 5.031a.905.905 0 0 1-.263.635.906.906 0 0 1-.636.264.905.905 0 0 1-.635-.264.904.904 0 0 1-.264-.635c0-.236.096-.468.264-.635a.907.907 0 0 1 .635-.263c.237 0 .468.096.636.263a.903.903 0 0 1 .263.635zm16.596-10.063a.899.899 0 0 1-.899.899H11.141a.899.899 0 0 1 0-1.797h12.758c.496 0 .899.402.899.898zm20.698-8.292L34.189 36.445a.9.9 0 0 1-.245.275l-5.776 4.253a.898.898 0 0 1-1.425-.823l.795-7.129a.893.893 0 0 1 .115-.35L38.96 13.09a3.749 3.749 0 0 1 2.291-1.758 3.747 3.747 0 0 1 2.864.377 3.778 3.778 0 0 1 1.38 5.155zM31.772 36.087l-2.6-1.501-.416 3.722zm10.384-17.033l-3.424-1.977-9.073 15.715 3.423 1.977zm1.981-4.59a1.964 1.964 0 0 0-.921-1.2 1.96 1.96 0 0 0-1.5-.197c-.51.136-.936.463-1.2.92l-.886 1.534 3.424 1.977.886-1.534c.263-.457.334-.99.197-1.5z"/></g></g></svg>