<svg xmlns="http://www.w3.org/2000/svg" width="31" height="31" viewBox="0 0 31 31"><g><g><path fill="#0f7bff" d="M31 6.113v23.069a1.818 1.818 0 0 1-1.816 1.817H6.902a1.818 1.818 0 0 1-1.816-1.817v-5.186a.605.605 0 1 1 1.21 0v5.186c0 .334.272.605.606.605h22.282a.606.606 0 0 0 .605-.605V6.719h-3.693a1.818 1.818 0 0 1-1.817-1.816V1.21H6.902a.606.606 0 0 0-.605.605v.788a7.964 7.964 0 0 1 1.7-.182c.335 0 .606.27.606.605v7.393a.606.606 0 0 1-.605.605H.605A.606.606 0 0 1 0 10.419c0-3.384 2.112-6.282 5.086-7.45V1.815c0-1.001.815-1.816 1.816-1.816h17.983c.16 0 .314.064.428.177l5.51 5.51a.605.605 0 0 1 .177.427zm-29.762 3.7h6.154V3.658a6.799 6.799 0 0 0-6.154 6.155zm27.695-4.304L25.49 2.066v2.837c0 .334.272.606.606.606zM6.297 21.796a.61.61 0 0 1-.606.605.61.61 0 0 1-.428-.177.609.609 0 0 1 .428-1.033.609.609 0 0 1 .606.605zm11.867-9.208c0 4.409-3.588 7.996-7.998 7.996S2.17 16.997 2.17 12.588c0-.336.27-.607.605-.607h6.787V5.195c0-.334.271-.606.605-.606 4.41 0 7.998 3.588 7.998 7.999zm-7.392-1.463l3.744-3.744a6.757 6.757 0 0 0-3.744-1.554zm6.181 1.463c0-1.655-.594-3.171-1.58-4.35l-4.779 4.777a.605.605 0 0 1-.428.177h-6.76c.308 3.46 3.222 6.182 6.76 6.182a6.794 6.794 0 0 0 6.787-6.786zm11.387 8.336a1.818 1.818 0 0 1-2.67 1.603l-3.456 3.455a1.818 1.818 0 0 1-1.644 2.589 1.818 1.818 0 0 1-1.636-2.606l-2.25-2.251a1.804 1.804 0 0 1-1.702.049l-2.21 2.209c.115.238.18.504.18.784a1.819 1.819 0 0 1-1.817 1.817 1.818 1.818 0 0 1-1.817-1.817 1.819 1.819 0 0 1 2.598-1.64l2.221-2.221a1.818 1.818 0 0 1 1.649-2.576 1.818 1.818 0 0 1 1.692 2.477l2.316 2.316a1.805 1.805 0 0 1 1.569.008l3.488-3.488a1.818 1.818 0 0 1 1.673-2.524c1.001 0 1.816.814 1.816 1.816zm-16.6 5.832a.604.604 0 0 0-.17-.42l-.01-.008-.006-.008a.606.606 0 1 0 .186.436zm4.652-4.621a.606.606 0 1 0-1.212.001.606.606 0 0 0 1.212-.001zm4.783 4.62a.606.606 0 0 0-1.21 0 .605.605 0 0 0 1.21 0zm5.954-5.831a.606.606 0 1 0-1.211.001.606.606 0 0 0 1.211-.001zm-3.026-6.091a.606.606 0 0 1-.605.605h-3.196a.605.605 0 0 1 0-1.211h3.196c.334 0 .605.27.605.606zm2.757 0a.612.612 0 0 1-.178.428.61.61 0 0 1-.856 0 .609.609 0 0 1 .428-1.034.609.609 0 0 1 .606.606zm1.444-5.812a.606.606 0 0 1-.606.605h-7.396a.606.606 0 0 1 0-1.211h7.396c.334 0 .606.271.606.606zm0 2.905a.606.606 0 0 1-.606.606h-7.396a.606.606 0 0 1 0-1.211h7.396c.334 0 .606.271.606.605z"/></g></g></svg>