<svg xmlns="http://www.w3.org/2000/svg" width="47" height="47" viewBox="0 0 47 47"><g><g><path fill="#0f7bff" d="M17.189.917a.925.925 0 0 1-.27.65.924.924 0 0 1-.648.268.925.925 0 0 1-.649-.268.924.924 0 0 1-.27-.65A.923.923 0 0 1 16.27 0c.242 0 .48.098.65.27.17.17.269.407.269.648zM47 17.166v25.243C47 44.94 44.94 47 42.41 47H4.59C2.059 47 0 44.94 0 42.41V17.166c0-.307.15-.577.38-.744l4.577-3.312V2.753A2.757 2.757 0 0 1 7.711 0h5.003a.918.918 0 0 1 0 1.836H7.71a.92.92 0 0 0-.918.918v18.024l11.205 9.149 2.811-2.034a4.58 4.58 0 0 1 5.382 0L29 29.926l11.206-9.149V2.753a.92.92 0 0 0-.918-.918H19.874a.918.918 0 0 1 0-1.836h19.415a2.757 2.757 0 0 1 2.754 2.754V13.11l4.577 3.312a.914.914 0 0 1 .38.744zm-4.957 2.112l2.534-2.069-2.534-1.833zm-39.62-2.069l2.534 2.069v-3.902zm-.587 24.412L16.459 31.04 1.836 19.1zm43.023 2.045l-1.483-1.073H31.67a.918.918 0 1 1 0-1.836h9.169L25.114 29.38a2.749 2.749 0 0 0-3.228 0L2.14 43.666a2.757 2.757 0 0 0 2.449 1.498h37.82c1.066 0 1.992-.61 2.45-1.498zm.305-24.566L30.541 31.04l14.623 10.58zm-17.14-6.848l-5.154 5.154a.917.917 0 0 1-1.298 0l-2.596-2.596a.918.918 0 1 1 1.298-1.298l1.947 1.947 4.505-4.505a.918.918 0 1 1 1.298 1.298zm4.7 1.928c0 5.086-4.138 9.223-9.224 9.223s-9.224-4.137-9.224-9.223c0-5.086 4.138-9.224 9.224-9.224s9.224 4.138 9.224 9.224zm-1.836 0c0-4.073-3.314-7.388-7.388-7.388s-7.388 3.315-7.388 7.388c0 4.074 3.314 7.387 7.388 7.387s7.388-3.313 7.388-7.387zm-2.461 27.495a.925.925 0 0 1-.27.649.924.924 0 0 1-.648.269.922.922 0 0 1-.918-.918.92.92 0 0 1 .918-.918.924.924 0 0 1 .918.918z"/></g></g></svg>