<svg xmlns="http://www.w3.org/2000/svg" width="55" height="55" viewBox="0 0 55 55"><g><g><path fill="#0f7bff" d="M55.002 1.23a1.138 1.138 0 0 1-.027.2c-.008.039-.004.077-.016.114L38.215 54.166a1.196 1.196 0 0 1-1.08.831c-.02.002-.039.002-.06.002-.474 0-.907-.283-1.097-.72L25.354 29.683.768 20.237A1.195 1.195 0 0 1 .81 17.99L53.433.05c.04-.013.082-.01.123-.02.065-.015.128-.029.194-.032.07-.004.139.002.21.01.059.007.116.015.175.03.07.022.134.048.2.08.034.017.072.022.105.043.02.011.033.032.054.046.056.04.105.085.154.134.05.05.096.097.135.152.016.02.037.035.05.056.02.034.027.071.044.106a1.115 1.115 0 0 1 .116.38c.008.066.011.129.01.196zM25.955 27.353l23.38-23.38-44.63 15.215zm25.233-21.85L27.672 29.019l9.233 21.374zM18.786 37.905L2.042 54.649a1.192 1.192 0 0 1-1.691 0 1.195 1.195 0 0 1 0-1.692l16.744-16.743a1.195 1.195 0 1 1 1.69 1.691zm4.784 6.68a1.195 1.195 0 0 1 0 1.692l-8.372 8.372a1.192 1.192 0 0 1-1.691 0 1.195 1.195 0 0 1 0-1.692l8.371-8.372a1.195 1.195 0 0 1 1.692 0zM.35 41.493a1.194 1.194 0 0 1 0-1.691l8.373-8.372a1.194 1.194 0 0 1 1.69 0 1.194 1.194 0 0 1 0 1.691l-8.371 8.372a1.194 1.194 0 0 1-1.691 0z"/></g></g></svg>