<svg xmlns="http://www.w3.org/2000/svg" width="108" height="75" viewBox="0 0 108 75"><g><g><path fill="#edf5ff" d="M4.49 48.83l34.68-36.018c5.746-5.968 15.242-6.147 21.21-.402 5.967 5.746 6.147 15.242.401 21.21L26.102 69.638c-5.746 5.968-15.242 6.148-21.21.402-5.967-5.746-6.147-15.241-.401-21.21z"/></g><g><path fill="#ebf9ff" d="M47.49 40.83L82.17 4.813c5.746-5.967 15.242-6.148 21.21-.401 5.967 5.745 6.147 15.24.401 21.21L69.102 61.638c-5.746 5.968-15.242 6.147-21.21.402-5.967-5.746-6.147-15.242-.401-21.21z"/></g></g></svg>