<svg xmlns="http://www.w3.org/2000/svg" width="10" height="20" viewBox="0 0 10 20"><g><g><path fill="#fff" d="M9.276-.002h-2.24c-1.714 0-2.945.378-3.693 1.135-.748.757-1.122 1.872-1.122 3.344v1.404c0 .371-.323.671-.722.671H.725c-.399 0-.722.301-.722.672v2.103c0 .372.323.672.722.672H1.5c.4 0 .722.3.722.672v8.657c0 .371.324.672.722.672H5.95c.398 0 .722-.3.722-.672v-8.657c0-.371.323-.672.722-.672H8.91c.398 0 .756-.3.797-.668l.24-2.11c.042-.37-.247-.669-.646-.669h-1.91c-.398 0-.721-.3-.721-.671V4.829c0-.259.012-.46.039-.601.026-.142.084-.281.176-.419.091-.137.24-.232.443-.285.205-.053.477-.079.816-.079h1.13c.4 0 .723-.3.723-.671V.67c0-.371-.323-.672-.722-.672z"/></g></g></svg>