<svg xmlns="http://www.w3.org/2000/svg" width="61" height="61" viewBox="0 0 61 61"><g><g><path fill="#0f7bff" d="M59.288 15.342a31.663 31.663 0 0 1-7.541 12.03l-7.712 7.685-1.436 11.09a1.152 1.152 0 0 1-.329.668L31.538 57.508a1.16 1.16 0 0 1-1.957-.604l-1.503-8.086-1.594-1.59-1.839 3.384a1.158 1.158 0 0 1-1.835.266L9.936 38.051a1.15 1.15 0 0 1 .268-1.829l3.394-1.832-1.594-1.588-8.115-1.498a1.15 1.15 0 1 1-.608-1.948l10.733-10.694c.18-.18.417-.296.67-.329l11.132-1.43 7.711-7.684a31.808 31.808 0 0 1 12.074-7.513A31.895 31.895 0 0 1 59.76.233c.526.065.94.478 1.006 1.003a31.567 31.567 0 0 1-1.478 14.106zm-36.151 4.23l-7.766.998-8.898 8.867 5.707 1.053zm1.64 25.957l-9.471-9.437-2.636 1.422 10.68 10.641zm16.579-7.804L30.399 48.643l1.057 5.686 8.898-8.866zm15.618-22.788a13.894 13.894 0 0 1-7.162-3.79 13.816 13.816 0 0 1-3.804-7.137 29.475 29.475 0 0 0-10.844 6.84l-20.96 20.884 14.947 14.891L50.11 25.742a29.348 29.348 0 0 0 6.864-10.805zm1.593-12.513a29.632 29.632 0 0 0-10.336.893 11.504 11.504 0 0 0 3.217 6.2 11.576 11.576 0 0 0 6.223 3.205 29.309 29.309 0 0 0 .896-10.298zM43.963 16.975a6.984 6.984 0 0 1 0 9.892 7.01 7.01 0 0 1-4.964 2.045 7.01 7.01 0 0 1-4.964-2.045 6.984 6.984 0 0 1 0-9.892c2.737-2.727 7.19-2.727 9.928 0zm-1.637 1.631a4.698 4.698 0 0 0-3.327-1.371c-1.205 0-2.41.457-3.328 1.371a4.68 4.68 0 0 0 0 6.63 4.723 4.723 0 0 0 6.655 0 4.68 4.68 0 0 0 0-6.63zM15.064 47.617L5.136 57.51a1.154 1.154 0 0 1-.818.338c-.296 0-.592-.113-.818-.338a1.15 1.15 0 0 1 0-1.63l9.928-9.892a1.16 1.16 0 0 1 1.636 0 1.15 1.15 0 0 1 0 1.63zm3.164 1.522a1.15 1.15 0 0 1 0 1.63l-4.473 4.457a1.157 1.157 0 0 1-1.637 0 1.15 1.15 0 0 1 0-1.63l4.473-4.457a1.16 1.16 0 0 1 1.637 0zm-6.608 7.206a1.16 1.16 0 0 1-.407 1.387c-.41.287-.984.27-1.377-.04a1.162 1.162 0 0 1-.373-1.294 1.168 1.168 0 0 1 1.09-.765c.459 0 .896.286 1.067.712zm-2.704 2.072a1.15 1.15 0 0 1 0 1.63l-.616.615a1.156 1.156 0 0 1-1.636-.001 1.149 1.149 0 0 1 0-1.63l.616-.614a1.16 1.16 0 0 1 1.636 0zM6.446 49.9l-4.474 4.456a1.156 1.156 0 0 1-1.636 0 1.148 1.148 0 0 1 0-1.63l4.473-4.457a1.16 1.16 0 0 1 1.636 0 1.15 1.15 0 0 1 0 1.63zm.606-2.546c.01.014.016.024-.003-.005a1.163 1.163 0 0 1 .13-1.439c.345-.36.905-.454 1.352-.23.42.213.68.673.632 1.142-.05.48-.402.888-.871 1.005a1.173 1.173 0 0 1-1.24-.473zm3.414-1.938c-.296 0-.592-.112-.818-.337a1.15 1.15 0 0 1 0-1.63l.616-.615a1.16 1.16 0 0 1 1.636 0 1.15 1.15 0 0 1 0 1.63l-.616.614a1.153 1.153 0 0 1-.818.338z"/></g></g></svg>