<svg xmlns="http://www.w3.org/2000/svg" width="19" height="14" viewBox="0 0 19 14"><g><g><path fill="#d8d8d8" d="M18.997 6.996c0 1.567-.001 3.228-.332 4.749-.233 1.068-1.06 1.856-2.054 1.974-2.355.278-4.74.28-7.113.278-2.374.001-4.758 0-7.114-.278-.995-.118-1.82-.906-2.053-1.974C0 10.224 0 8.563 0 6.996 0 5.43.004 3.77.335 2.248.567 1.18 1.393.392 2.387.274c2.356-.278 4.74-.28 7.115-.278 2.373-.001 4.758 0 7.113.278.995.118 1.821.906 2.054 1.974.33 1.522.328 3.182.328 4.748zm-5.91-.193l-6.04-3.332v6.643l6.04-3.31z"/></g></g></svg>