<svg xmlns="http://www.w3.org/2000/svg" width="33" height="33" viewBox="0 0 33 33"><g><g><path fill="#0fff2d" d="M12.069.643a.648.648 0 0 1-1.1.456.649.649 0 0 1 0-.912.647.647 0 0 1 .91 0 .65.65 0 0 1 .19.456zm20.93 11.409v17.724A3.226 3.226 0 0 1 29.778 33H3.223A3.226 3.226 0 0 1 0 29.776V12.052c0-.216.105-.406.267-.522L3.48 9.204V1.933c0-1.067.868-1.935 1.934-1.935h3.513a.645.645 0 0 1 0 1.29H5.414a.646.646 0 0 0-.645.645v12.655l7.868 6.423 1.974-1.427a3.214 3.214 0 0 1 3.778 0l1.974 1.427 7.867-6.423V1.933a.645.645 0 0 0-.644-.645H13.954a.644.644 0 1 1 0-1.29h13.632c1.066 0 1.933.868 1.933 1.935v7.271l3.214 2.326a.642.642 0 0 1 .267.522zm-3.48 1.483l1.78-1.453-1.78-1.286zM1.701 12.082l1.78 1.453v-2.74zm-.412 17.14l10.267-7.43L1.29 13.41zm30.208 1.436l-1.042-.753h-8.219a.645.645 0 0 1 0-1.289h6.438l-11.04-7.988a1.929 1.929 0 0 0-2.268 0L1.503 30.658a1.934 1.934 0 0 0 1.72 1.052h26.554c.749 0 1.399-.428 1.72-1.052zm.214-17.248l-10.268 8.383 10.268 7.43zM19.676 8.602l-3.618 3.619a.646.646 0 0 1-.912 0l-1.823-1.824a.645.645 0 0 1 .912-.912l1.367 1.368 3.163-3.163a.645.645 0 0 1 .911.912zm3.3 1.354a6.484 6.484 0 0 1-6.476 6.476 6.484 6.484 0 0 1-6.476-6.477A6.483 6.483 0 0 1 16.5 3.479a6.483 6.483 0 0 1 6.476 6.477zm-1.289-.001A5.192 5.192 0 0 0 16.5 4.768a5.193 5.193 0 0 0-5.187 5.188 5.193 5.193 0 0 0 5.187 5.187 5.193 5.193 0 0 0 5.187-5.188zM19.959 29.26a.646.646 0 0 1-1.1.456.643.643 0 1 1 1.1-.456z"/></g></g></svg>