<svg xmlns="http://www.w3.org/2000/svg" width="40" height="52" viewBox="0 0 40 52"><g><g><path fill="#0f7bff" d="M22.29 5.096c0 1.31-1.027 2.376-2.29 2.376-1.263 0-2.29-1.066-2.29-2.376 0-1.309 1.027-2.375 2.29-2.375 1.263 0 2.29 1.066 2.29 2.375zm-1.469 0c0-.469-.368-.851-.821-.851-.453 0-.821.382-.821.851 0 .47.368.852.82.852.454 0 .822-.382.822-.852zm8.013 18.32c-1.7 2.497-4.558 4.847-8.493 6.986a.716.716 0 0 1-.682 0c-3.935-2.139-6.793-4.49-8.494-6.987-1.884-2.766-1.883-5.017-1.55-6.417.618-2.605 2.961-4.424 5.698-4.424 1.651 0 3.293.658 4.687 1.867 1.394-1.209 3.036-1.867 4.687-1.867 2.736 0 5.08 1.82 5.698 4.424.332 1.4.333 3.65-1.551 6.417zm.124-6.054c-.463-1.953-2.18-3.264-4.271-3.264-1.473 0-2.955.68-4.174 1.914a.715.715 0 0 1-1.027 0c-1.218-1.234-2.7-1.914-4.173-1.914-2.092 0-3.808 1.311-4.272 3.264-.372 1.567.086 3.356 1.324 5.175 1.517 2.227 4.085 4.356 7.635 6.328 3.55-1.972 6.117-4.1 7.634-6.328 1.238-1.819 1.696-3.608 1.324-5.175zm-13.35 1.416v.961c0 .421-.33.762-.735.762a.749.749 0 0 1-.735-.762v-.961c0-.421.329-.762.735-.762.405 0 .734.34.734.762zm10.254 0v.961c0 .421-.33.762-.735.762a.749.749 0 0 1-.735-.762v-.961c0-.421.33-.762.735-.762.406 0 .735.34.735.762zm-4.044 1.396c-.45.534-1.113.84-1.818.84a2.373 2.373 0 0 1-1.819-.84.782.782 0 0 1 .07-1.075.717.717 0 0 1 1.036.072c.172.204.432.32.713.32.281 0 .54-.116.712-.32a.717.717 0 0 1 1.037-.072.782.782 0 0 1 .07 1.075zm8.333 21.717c0 .42-.33.761-.735.761H10.584a.748.748 0 0 1-.735-.761c0-.421.329-.762.735-.762h18.832c.406 0 .735.341.735.762zm0-4.025c0 .42-.33.762-.735.762H10.584a.749.749 0 0 1-.735-.762c0-.421.329-.762.735-.762h18.832c.406 0 .735.341.735.762zm0-4.025c0 .42-.33.761-.735.761H10.584a.748.748 0 0 1-.735-.761c0-.421.329-.762.735-.762h18.832c.406 0 .735.341.735.762zm8.38-21.25V7.818c0-1.734-1.36-3.144-3.031-3.144h-3.826V6.99h3.788c.405 0 .734.342.734.763V47.4c0 .42-.329.762-.734.762H4.538a.749.749 0 0 1-.735-.762v-7.591c0-.42.33-.762.735-.762.406 0 .735.341.735.762v6.83h29.454V8.512h-3.14l-.004.012a2.226 2.226 0 0 1-.751 1.13 2.123 2.123 0 0 1-1.32.468H10.487c-.376 0-.75-.103-1.075-.298a2.267 2.267 0 0 1-.996-1.3l-.004-.012h-3.14v28.249c0 .42-.33.762-.735.762a.749.749 0 0 1-.735-.762V7.752c0-.421.33-.763.735-.763h3.787V4.675H4.5c-1.671 0-3.03 1.41-3.03 3.144v39.514c0 1.733 1.359 3.143 3.03 3.143h31c1.671 0 3.03-1.41 3.03-3.143V15.638c0-.421.33-.762.735-.762.406 0 .735.34.735.762v31.695C40 49.906 37.981 52 35.5 52h-31C2.02 52 0 49.906 0 47.333V7.819c0-2.573 2.019-4.667 4.5-4.667h3.948c.297-.872 1.1-1.498 2.04-1.498h5.167c.428 0 .84-.157 1.163-.441A4.81 4.81 0 0 1 20 0a4.81 4.81 0 0 1 3.182 1.213c.322.284.735.44 1.163.44h5.166c.942 0 1.744.627 2.04 1.5H35.5c2.481 0 4.5 2.093 4.5 4.666v4.771c0 .421-.329.762-.735.762a.749.749 0 0 1-.734-.762zm-8.326-4.84V3.898a.708.708 0 0 0-.694-.72h-5.166a3.196 3.196 0 0 1-2.115-.804 3.374 3.374 0 0 0-2.23-.85c-.817 0-1.609.302-2.23.85a3.196 3.196 0 0 1-2.115.804h-5.167a.708.708 0 0 0-.693.72v3.855c0 .426.232.848.693.848h19.023c.467 0 .694-.418.694-.848z"/></g></g></svg>